<svg xmlns="http://www.w3.org/2000/svg" version="1.1" xmlns:xlink="http://www.w3.org/1999/xlink" width="512" height="512" x="0" y="0" viewBox="0 0 682.667 682.667" style="enable-background:new 0 0 512 512" xml:space="preserve" class=""><g><defs><clipPath id="a" clipPathUnits="userSpaceOnUse"><path d="M0 512h512V0H0Z" fill="#f5b651" opacity="1" data-original="#000000" class=""></path></clipPath></defs><path d="M0 0h150.02" style="stroke-width:20;stroke-linecap:round;stroke-linejoin:round;stroke-miterlimit:10;stroke-dasharray:none;stroke-opacity:1" transform="matrix(1.33333 0 0 -1.33333 241.333 293.333)" fill="none" stroke="#f5b651" stroke-width="20" stroke-linecap="round" stroke-linejoin="round" stroke-miterlimit="10" stroke-dasharray="none" stroke-opacity="" data-original="#000000" class="" opacity="1"></path><g clip-path="url(#a)" transform="matrix(1.33333 0 0 -1.33333 0 682.667)"><path d="M0 0v.01c.01 33.13 26.87 59.99 60 60h.01c16.57 0 31.57-6.72 42.43-17.58C113.3 31.569 120.01 16.58 120.01.01V0" style="stroke-width:20;stroke-linecap:round;stroke-linejoin:round;stroke-miterlimit:10;stroke-dasharray:none;stroke-opacity:1" transform="translate(196 291.99)" fill="none" stroke="#f5b651" stroke-width="20" stroke-linecap="round" stroke-linejoin="round" stroke-miterlimit="10" stroke-dasharray="none" stroke-opacity="" data-original="#000000" class="" opacity="1"></path><path d="M0 0v-30" style="stroke-width:20;stroke-linecap:round;stroke-linejoin:round;stroke-miterlimit:10;stroke-dasharray:none;stroke-opacity:1" transform="translate(256 382)" fill="none" stroke="#f5b651" stroke-width="20" stroke-linecap="round" stroke-linejoin="round" stroke-miterlimit="10" stroke-dasharray="none" stroke-opacity="" data-original="#000000" class="" opacity="1"></path><path d="m0 0-53.93 77.04" style="stroke-width:20;stroke-linecap:round;stroke-linejoin:round;stroke-miterlimit:10;stroke-dasharray:none;stroke-opacity:1" transform="translate(371.56 69.09)" fill="none" stroke="#f5b651" stroke-width="20" stroke-linecap="round" stroke-linejoin="round" stroke-miterlimit="10" stroke-dasharray="none" stroke-opacity="" data-original="#000000" class="" opacity="1"></path><path d="m0 0-67.421-96.279 66.36-9.851 31.941-58.99 83.93 119.86 83.83-119.86 31.939 58.99 66.37 9.851L229.529 0" style="stroke-width:20;stroke-linecap:round;stroke-linejoin:round;stroke-miterlimit:10;stroke-dasharray:none;stroke-opacity:1" transform="translate(140.98 175.22)" fill="none" stroke="#f5b651" stroke-width="20" stroke-linecap="round" stroke-linejoin="round" stroke-miterlimit="10" stroke-dasharray="none" stroke-opacity="" data-original="#000000" class="" opacity="1"></path><path d="m0 0 53.94 77.04" style="stroke-width:20;stroke-linecap:round;stroke-linejoin:round;stroke-miterlimit:10;stroke-dasharray:none;stroke-opacity:1" transform="translate(139.92 69.09)" fill="none" stroke="#f5b651" stroke-width="20" stroke-linecap="round" stroke-linejoin="round" stroke-miterlimit="10" stroke-dasharray="none" stroke-opacity="" data-original="#000000" class="" opacity="1"></path><path d="M0 0h-.05C-16.93 0-32.79 6.33-45.1 17.91c-5-1.17-10.1-1.77-15.22-1.77-.54 0-1.07.01-1.61.03a65.496 65.496 0 0 0-31.13 8.75c-8.86 5.12-16.23 12.06-21.75 20.34-3.58 5.38-6.38 11.32-8.3 17.7-16.18 4.86-29.59 15.43-38.04 30.05-8.44 14.62-10.88 31.53-7.01 47.97-11.58 12.3-17.63 28.16-17.63 45.041 0 16.879 6.05 32.739 17.63 45.049-3.88 16.44-1.43 33.34 7.01 47.96 8.45 14.62 21.86 25.19 38.04 30.06 4.86 16.17 15.43 29.59 30.05 38.03a65.624 65.624 0 0 0 32.75 8.78c5.11 0 10.21-.59 15.21-1.77 12.31 11.58 28.17 17.91 45.05 17.91 16.88 0 32.75-6.33 45.05-17.91 5 1.18 10.1 1.77 15.22 1.77 11.47 0 22.79-3.04 32.74-8.78 14.62-8.44 25.19-21.86 30.06-38.03 16.17-4.87 29.59-15.44 38.03-30.06 8.44-14.62 10.89-31.52 7.02-47.96 11.57-12.299 18.14-28.17 18.14-45.049 0-16.881-6.57-32.741-18.14-45.041 3.87-16.44 1.42-33.34-7.02-47.97-8.44-14.62-21.86-25.19-38.03-30.05-1.92-6.38-4.72-12.32-8.3-17.7-5.53-8.28-12.9-15.22-21.76-20.34a65.493 65.493 0 0 0-31.12-8.75c-.54-.02-1.08-.03-1.62-.03-5.12 0-10.22.6-15.22 1.77C32.71 6.34 16.86.01 0 0Z" style="stroke-width:20;stroke-linecap:round;stroke-linejoin:round;stroke-miterlimit:10;stroke-dasharray:none;stroke-opacity:1" transform="translate(255.79 129.96)" fill="none" stroke="#f5b651" stroke-width="20" stroke-linecap="round" stroke-linejoin="round" stroke-miterlimit="10" stroke-dasharray="none" stroke-opacity="" data-original="#000000" class="" opacity="1"></path><path d="M0 0c0-5.522-4.478-10-10-10S-20-5.522-20 0s4.478 10 10 10S0 5.522 0 0" style="fill-opacity:1;fill-rule:nonzero;stroke:none" transform="translate(265 202)" fill="#f5b651" data-original="#000000" opacity="1" class=""></path><path d="M0 0c-44.033 17.778-75.104 60.924-75.104 111.327 0 66.279 53.729 120.01 120.009 120.01s120.01-53.731 120.01-120.01c0-50.927-31.721-94.444-76.481-111.873" style="stroke-width:20;stroke-linecap:round;stroke-linejoin:round;stroke-miterlimit:10;stroke-dasharray:none;stroke-opacity:1" transform="translate(210.835 210.653)" fill="none" stroke="#f5b651" stroke-width="20" stroke-linecap="round" stroke-linejoin="round" stroke-miterlimit="10" stroke-dasharray="none" stroke-opacity="" data-original="#000000" class="" opacity="1"></path></g></g></svg>