<svg xmlns="http://www.w3.org/2000/svg" version="1.1" xmlns:xlink="http://www.w3.org/1999/xlink" width="512" height="512" x="0" y="0" viewBox="0 0 682.667 682.667" style="enable-background:new 0 0 512 512" xml:space="preserve" class=""><g><defs><clipPath id="a" clipPathUnits="userSpaceOnUse"><path d="M0 512h512V0H0Z" fill="#f5b651" opacity="1" data-original="#000000"></path></clipPath><clipPath id="b" clipPathUnits="userSpaceOnUse"><path d="M0 512h512V0H0Z" fill="#f5b651" opacity="1" data-original="#000000"></path></clipPath></defs><g clip-path="url(#a)" transform="matrix(1.33333 0 0 -1.33333 0 682.667)"><path d="m0 0-39.909-31.837m-48.683 45.662 67.117 96.258c55.937 80.225 149.717-7.802 74.859-67.519L25.89 20.623" style="stroke-width:15.118;stroke-linecap:round;stroke-linejoin:round;stroke-miterlimit:10;stroke-dasharray:none;stroke-opacity:1" transform="translate(-115.21 -169.727)" fill="none" stroke="#f5b651" stroke-width="15.118" stroke-linecap="round" stroke-linejoin="round" stroke-miterlimit="10" stroke-dasharray="none" stroke-opacity="" data-original="#000000" class="" opacity="1"></path></g><g clip-path="url(#b)" transform="matrix(1.33333 0 0 -1.33333 0 682.667)"><path d="M0 0c-24.139-22.722 14.974-31.246-7.586-53.233" style="stroke-width:15.118;stroke-linecap:round;stroke-linejoin:round;stroke-miterlimit:10;stroke-dasharray:none;stroke-opacity:1" transform="translate(85.16 271.634)" fill="none" stroke="#f5b651" stroke-width="15.118" stroke-linecap="round" stroke-linejoin="round" stroke-miterlimit="10" stroke-dasharray="none" stroke-opacity="" data-original="#000000" class="" opacity="1"></path><path d="M0 0c-24.138-22.722 15.002-31.245-7.558-53.233" style="stroke-width:15.118;stroke-linecap:round;stroke-linejoin:round;stroke-miterlimit:10;stroke-dasharray:none;stroke-opacity:1" transform="translate(126.978 312.165)" fill="none" stroke="#f5b651" stroke-width="15.118" stroke-linecap="round" stroke-linejoin="round" stroke-miterlimit="10" stroke-dasharray="none" stroke-opacity="" data-original="#000000" class="" opacity="1"></path><path d="M0 0v116.627" style="stroke-width:15.118;stroke-linecap:round;stroke-linejoin:round;stroke-miterlimit:10;stroke-dasharray:none;stroke-opacity:1" transform="translate(466.685 126.95)" fill="none" stroke="#f5b651" stroke-width="15.118" stroke-linecap="round" stroke-linejoin="round" stroke-miterlimit="10" stroke-dasharray="none" stroke-opacity="" data-original="#000000" class="" opacity="1"></path><path d="M0 0v45.838m34.487 5.475V0" style="stroke-width:15.118;stroke-linecap:round;stroke-linejoin:round;stroke-miterlimit:10;stroke-dasharray:none;stroke-opacity:1" transform="translate(169.895 161.498)" fill="none" stroke="#f5b651" stroke-width="15.118" stroke-linecap="round" stroke-linejoin="round" stroke-miterlimit="10" stroke-dasharray="none" stroke-opacity="" data-original="#000000" class="" opacity="1"></path><path d="M0 0v66.668m34.486-5.307V0" style="stroke-width:15.118;stroke-linecap:round;stroke-linejoin:round;stroke-miterlimit:10;stroke-dasharray:none;stroke-opacity:1" transform="translate(337.818 145.861)" fill="none" stroke="#f5b651" stroke-width="15.118" stroke-linecap="round" stroke-linejoin="round" stroke-miterlimit="10" stroke-dasharray="none" stroke-opacity="" data-original="#000000" class="" opacity="1"></path><path d="M0 0c-21.064-39.938-117.362-37.116-133.436 0" style="stroke-width:15.118;stroke-linecap:round;stroke-linejoin:round;stroke-miterlimit:10;stroke-dasharray:none;stroke-opacity:1" transform="translate(337.818 212.53)" fill="none" stroke="#f5b651" stroke-width="15.118" stroke-linecap="round" stroke-linejoin="round" stroke-miterlimit="10" stroke-dasharray="none" stroke-opacity="" data-original="#000000" class="" opacity="1"></path><path d="M0 0h-24.73c-9.898 0-17.991 8.101-17.991 18.008 0 9.907 8.093 18.036 17.991 18.036H5.556" style="stroke-width:15.118;stroke-linecap:round;stroke-linejoin:round;stroke-miterlimit:10;stroke-dasharray:none;stroke-opacity:1" transform="translate(50.22 125.454)" fill="none" stroke="#f5b651" stroke-width="15.118" stroke-linecap="round" stroke-linejoin="round" stroke-miterlimit="10" stroke-dasharray="none" stroke-opacity="" data-original="#000000" class="" opacity="1"></path><path d="M0 0h30.286c9.926 0 18.019-8.129 18.019-18.036 0-9.907-8.093-18.008-18.019-18.008H5.499" style="stroke-width:15.118;stroke-linecap:round;stroke-linejoin:round;stroke-miterlimit:10;stroke-dasharray:none;stroke-opacity:1" transform="translate(239.94 161.498)" fill="none" stroke="#f5b651" stroke-width="15.118" stroke-linecap="round" stroke-linejoin="round" stroke-miterlimit="10" stroke-dasharray="none" stroke-opacity="" data-original="#000000" class="" opacity="1"></path><path d="M0 0h155.712l-13.45 77.874c-1.27 7.564-6.261 13.972-13.931 13.972H44.103" style="stroke-width:15.118;stroke-linecap:round;stroke-linejoin:round;stroke-miterlimit:10;stroke-dasharray:none;stroke-opacity:1" transform="translate(243.974 54.016)" fill="none" stroke="#f5b651" stroke-width="15.118" stroke-linecap="round" stroke-linejoin="round" stroke-miterlimit="10" stroke-dasharray="none" stroke-opacity="" data-original="#000000" class="" opacity="1"></path><path d="m0 0-9.391 39.798c-8.656 36.693-41.959 49.451-80.704 51.286-16.242.536-24.251 9.652-30.003 20.858m78.364-176.324h35.418m-214.676 176.578c-.029-.028-.113-.225-.142-.254-5.752-11.206-13.761-20.322-30.003-20.858-37.56-1.778-70.016-13.803-79.858-47.983" style="stroke-width:15.118;stroke-linecap:round;stroke-linejoin:round;stroke-miterlimit:10;stroke-dasharray:none;stroke-opacity:1" transform="translate(441.42 118.397)" fill="none" stroke="#f5b651" stroke-width="15.118" stroke-linecap="round" stroke-linejoin="round" stroke-miterlimit="10" stroke-dasharray="none" stroke-opacity="" data-original="#000000" class="" opacity="1"></path><path d="M0 0h-13.817c-9.757 0-17.765 8.017-17.765 17.811v57.156c0 9.765 8.008 17.782 17.765 17.782H0c17.37 0 31.583-14.226 31.583-31.612V31.612C31.583 14.226 17.37 0 0 0Z" style="stroke-width:15.118;stroke-linecap:round;stroke-linejoin:round;stroke-miterlimit:10;stroke-dasharray:none;stroke-opacity:1" transform="translate(466.685 29.855)" fill="none" stroke="#f5b651" stroke-width="15.118" stroke-linecap="round" stroke-linejoin="round" stroke-miterlimit="10" stroke-dasharray="none" stroke-opacity="" data-original="#000000" class="" opacity="1"></path><path d="M0 0c5.075 5.193 21.487 5.193 26.647 0" style="stroke-width:15.118;stroke-linecap:round;stroke-linejoin:round;stroke-miterlimit:10;stroke-dasharray:none;stroke-opacity:1" transform="translate(225.222 314.762)" fill="none" stroke="#f5b651" stroke-width="15.118" stroke-linecap="round" stroke-linejoin="round" stroke-miterlimit="10" stroke-dasharray="none" stroke-opacity="" data-original="#000000" class="" opacity="1"></path><path d="M0 0c5.076 5.193 21.487 5.193 26.647 0" style="stroke-width:15.118;stroke-linecap:round;stroke-linejoin:round;stroke-miterlimit:10;stroke-dasharray:none;stroke-opacity:1" transform="translate(286.44 314.762)" fill="none" stroke="#f5b651" stroke-width="15.118" stroke-linecap="round" stroke-linejoin="round" stroke-miterlimit="10" stroke-dasharray="none" stroke-opacity="" data-original="#000000" class="" opacity="1"></path><path d="M0 0c-24.956-1.017-49.996-4.488-75.121-10.443m182.84 0C83.834-4.854 59.865-1.411 35.841-.17" style="stroke-width:15.118;stroke-linecap:round;stroke-linejoin:round;stroke-miterlimit:10;stroke-dasharray:none;stroke-opacity:1" transform="translate(254.745 358.935)" fill="none" stroke="#f5b651" stroke-width="15.118" stroke-linecap="round" stroke-linejoin="round" stroke-miterlimit="10" stroke-dasharray="none" stroke-opacity="" data-original="#000000" class="" opacity="1"></path><path d="M0 0c4.879.959 37.307 8.806 33.528 43.043" style="stroke-width:15.118;stroke-linecap:round;stroke-linejoin:round;stroke-miterlimit:10;stroke-dasharray:none;stroke-opacity:1" transform="translate(179.624 311.94)" fill="none" stroke="#f5b651" stroke-width="15.118" stroke-linecap="round" stroke-linejoin="round" stroke-miterlimit="10" stroke-dasharray="none" stroke-opacity="" data-original="#000000" class="" opacity="1"></path><path d="M0 0c-2.256.396-37.814 7.254-33.838 43.1" style="stroke-width:15.118;stroke-linecap:round;stroke-linejoin:round;stroke-miterlimit:10;stroke-dasharray:none;stroke-opacity:1" transform="translate(362.379 311.883)" fill="none" stroke="#f5b651" stroke-width="15.118" stroke-linecap="round" stroke-linejoin="round" stroke-miterlimit="10" stroke-dasharray="none" stroke-opacity="" data-original="#000000" class="" opacity="1"></path><path d="M0 0v-34.717" style="stroke-width:15.118;stroke-linecap:round;stroke-linejoin:round;stroke-miterlimit:10;stroke-dasharray:none;stroke-opacity:1" transform="translate(269.888 442.17)" fill="none" stroke="#f5b651" stroke-width="15.118" stroke-linecap="round" stroke-linejoin="round" stroke-miterlimit="10" stroke-dasharray="none" stroke-opacity="" data-original="#000000" class="" opacity="1"></path><path d="M0 0v-34.688" style="stroke-width:15.118;stroke-linecap:round;stroke-linejoin:round;stroke-miterlimit:10;stroke-dasharray:none;stroke-opacity:1" transform="translate(218.566 426.478)" fill="none" stroke="#f5b651" stroke-width="15.118" stroke-linecap="round" stroke-linejoin="round" stroke-miterlimit="10" stroke-dasharray="none" stroke-opacity="" data-original="#000000" class="" opacity="1"></path><path d="M0 0v-34.688" style="stroke-width:15.118;stroke-linecap:round;stroke-linejoin:round;stroke-miterlimit:10;stroke-dasharray:none;stroke-opacity:1" transform="translate(321.209 426.478)" fill="none" stroke="#f5b651" stroke-width="15.118" stroke-linecap="round" stroke-linejoin="round" stroke-miterlimit="10" stroke-dasharray="none" stroke-opacity="" data-original="#000000" class="" opacity="1"></path><path d="M0 0h32.09c11.956 0 21.769-9.822 21.769-21.79v-65.821c0-11.996-9.813-21.79-21.769-21.79H0c-11.984 0-21.77 9.794-21.77 21.79v65.821C-21.77-9.822-11.984 0 0 0Z" style="stroke-width:15.118;stroke-linecap:round;stroke-linejoin:round;stroke-miterlimit:10;stroke-dasharray:none;stroke-opacity:1" transform="translate(450.64 352.978)" fill="none" stroke="#f5b651" stroke-width="15.118" stroke-linecap="round" stroke-linejoin="round" stroke-miterlimit="10" stroke-dasharray="none" stroke-opacity="" data-original="#000000" class="" opacity="1"></path><path d="M0 0c-2.284 10.33-.648 21.112 9.982 21.112H194.146c10.66 0 12.267-10.782 9.983-21.112-7.416-33.504-30.651-61.108-61.585-73.866H62.403C31.356-61.673 7.896-35.479 0 0Z" style="stroke-width:15.118;stroke-linecap:round;stroke-linejoin:round;stroke-miterlimit:10;stroke-dasharray:none;stroke-opacity:1" transform="translate(45.794 140.386)" fill="none" stroke="#f5b651" stroke-width="15.118" stroke-linecap="round" stroke-linejoin="round" stroke-miterlimit="10" stroke-dasharray="none" stroke-opacity="" data-original="#000000" class="" opacity="1"></path><path d="M0 0h-44.271c-8.15 0-14.777 6.661-14.777 14.79v15.439c0 8.129 6.627 14.791 14.777 14.791h157.432c8.121 0 14.777-6.662 14.777-14.791V14.79c0-8.129-6.656-14.79-14.777-14.79h-78.73" style="stroke-width:15.118;stroke-linecap:round;stroke-linejoin:round;stroke-miterlimit:10;stroke-dasharray:none;stroke-opacity:1" transform="translate(116.233 21.5)" fill="none" stroke="#f5b651" stroke-width="15.118" stroke-linecap="round" stroke-linejoin="round" stroke-miterlimit="10" stroke-dasharray="none" stroke-opacity="" data-original="#000000" class="" opacity="1"></path><path d="M0 0c-33.5 20.859-12.182 60.205 23.603 60.205H48.36c18.499 36.101 74.614 36.101 85.104 0h26.619c35.784 0 56.172-39.346 22.672-60.205v-104.49c0-48.575-52.732-84.846-91.674-87.019C62.826-193.062 0-155.804 0-108.413Z" style="stroke-width:15.118;stroke-linecap:round;stroke-linejoin:round;stroke-miterlimit:10;stroke-dasharray:none;stroke-opacity:1" transform="translate(179.624 403.22)" fill="none" stroke="#f5b651" stroke-width="15.118" stroke-linecap="round" stroke-linejoin="round" stroke-miterlimit="10" stroke-dasharray="none" stroke-opacity="" data-original="#000000" class="" opacity="1"></path></g></g></svg>