<svg xmlns="http://www.w3.org/2000/svg" version="1.1" xmlns:xlink="http://www.w3.org/1999/xlink" width="512" height="512" x="0" y="0" viewBox="0 0 512.001 512" style="enable-background:new 0 0 512 512" xml:space="preserve" class=""><g><path d="M357.848 62.984a7.5 7.5 0 0 0-7.5 7.5v34.5a7.5 7.5 0 1 0 15 0v-34.5c0-4.14-3.36-7.5-7.5-7.5zM418.32 62.984a7.5 7.5 0 0 0-7.5 7.5v34.5a7.5 7.5 0 0 0 7.5 7.5 7.5 7.5 0 0 0 7.5-7.5v-34.5a7.5 7.5 0 0 0-7.5-7.5zM347.844 310.844h41c4.14 0 7.5-3.36 7.5-7.5s-3.36-7.5-7.5-7.5h-41a7.5 7.5 0 1 0 0 15zM388.844 414.176h-41a7.5 7.5 0 0 0-7.5 7.5c0 4.144 3.355 7.5 7.5 7.5h41a7.5 7.5 0 1 0 0-15zm0 0" fill="#f5b651" opacity="1" data-original="#000000" class=""></path><path d="M496.488 235.14h-50.324a7.497 7.497 0 0 0-7.5 7.5 7.5 7.5 0 0 0 7.5 7.5h50.324c.282 0 .512.227.512.512v18.114c0 .285-.23.515-.512.515H15.512a.514.514 0 0 1-.512-.515v-18.114c0-.28.23-.511.512-.511h400.652a7.5 7.5 0 0 0 7.5-7.5c0-4.145-3.355-7.5-7.5-7.5H175.266v-12.645c8.914-.371 16.046-7.738 16.046-16.742v-10.41a7.5 7.5 0 1 0-15 0v10.41c0 .969-.785 1.758-1.753 1.758H61.973a1.76 1.76 0 0 1-1.758-1.758v-10.41a7.5 7.5 0 1 0-15 0v10.41c0 9.004 7.137 16.371 16.05 16.742v12.645H15.513C6.96 235.14 0 242.098 0 250.652v18.114c0 8.554 6.96 15.515 15.512 15.515h8.304v205.38c0 11.968 9.735 21.702 21.704 21.702h420.96c11.97 0 21.704-9.734 21.704-21.703V284.281h8.304c8.551 0 15.512-6.96 15.512-15.515v-18.114c0-8.554-6.96-15.511-15.512-15.511zM76.266 222.513h84v12.629h-84zM38.816 489.66V284.281H248.5v212.082H45.52a6.707 6.707 0 0 1-6.704-6.703zm427.664 6.703H263.5v-97.945h209.688v91.242a6.71 6.71 0 0 1-6.708 6.703zm6.707-112.945H263.5v-99.137h209.687zm0 0" fill="#f5b651" opacity="1" data-original="#000000" class=""></path><path d="M220.46 356.613H69.54c-7.618 0-13.813 6.196-13.813 13.813v96.836c0 7.617 6.195 13.812 13.812 13.812h150.922c7.617 0 13.812-6.195 13.812-13.812v-96.836c0-7.617-6.195-13.813-13.812-13.813zm-1.187 109.461H70.727v-94.457h148.546zM80.227 344.844c13.511 0 24.5-10.992 24.5-24.5s-10.989-24.5-24.5-24.5c-13.508 0-24.5 10.992-24.5 24.5s10.992 24.5 24.5 24.5zm0-34c5.238 0 9.5 4.261 9.5 9.5s-4.262 9.5-9.5 9.5c-5.239 0-9.5-4.262-9.5-9.5s4.261-9.5 9.5-9.5zM145 344.844c13.508 0 24.5-10.992 24.5-24.5s-10.992-24.5-24.5-24.5-24.5 10.992-24.5 24.5 10.992 24.5 24.5 24.5zm0-34c5.238 0 9.5 4.261 9.5 9.5s-4.262 9.5-9.5 9.5-9.5-4.262-9.5-9.5 4.262-9.5 9.5-9.5zM491.527 0H284.641c-11.29 0-20.473 9.184-20.473 20.473v133.379c0 11.289 9.184 20.476 20.473 20.476h206.886c11.29 0 20.473-9.187 20.473-20.476V20.472C512 9.185 502.816 0 491.527 0zM279.168 153.852V20.472A5.479 5.479 0 0 1 284.641 15h95.941v144.328h-95.941a5.48 5.48 0 0 1-5.473-5.476zm217.832 0a5.48 5.48 0 0 1-5.473 5.476h-95.945V15h95.945A5.479 5.479 0 0 1 497 20.473zM14.953 94.664h215.621c8.246 0 14.957-6.707 14.957-14.957V66.273c0-8.246-6.707-14.953-14.957-14.953h-11.39c-2.61-16.562-16.98-29.265-34.262-29.265H60.609c-17.28 0-31.652 12.703-34.261 29.265H14.953C6.707 51.32 0 58.027 0 66.273v13.438c0 8.246 6.707 14.953 14.953 14.953zM64.75 66.32c4.14 0 7.5-3.36 7.5-7.5 0-4.14-3.36-7.5-7.5-7.5H41.684c2.359-8.226 9.953-14.265 18.925-14.265h124.313c8.973 0 16.566 6.039 18.926 14.265H95.227c-4.141 0-7.5 3.36-7.5 7.5 0 4.14 3.359 7.5 7.5 7.5l116.113-.039a7.346 7.346 0 0 0 1.543 0l17.648-.004.043 13.387L15 79.711l-.047-13.39zm0 0" fill="#f5b651" opacity="1" data-original="#000000" class=""></path></g></svg>