<svg xmlns="http://www.w3.org/2000/svg" version="1.1" xmlns:xlink="http://www.w3.org/1999/xlink" width="512" height="512" x="0" y="0" viewBox="0 0 512 512" style="enable-background:new 0 0 512 512" xml:space="preserve" class=""><g><path d="M503 280.762c0-.754-.122-1.503-.361-2.219l-35.003-104.731V132.17a7 7 0 0 0-7-7h-81.669C375.325 60.499 321.566 9 256 9S136.675 60.499 133.033 125.17h-81.67a7 7 0 0 0-7 7v41.642L9.361 278.543A7.007 7.007 0 0 0 9 280.762c0 21.901 15.058 40.348 35.363 45.54v144.711a7 7 0 0 0 7 7h25.768a44.224 44.224 0 0 0-.088 2.66c0 4.526 2.098 12.892 16.145 18.064 7.467 2.749 17.36 4.263 27.858 4.263 12.498 0 26.278-2.222 35.03-7.771 12.06 4.952 29.017 7.771 46.999 7.771 1.449 0 2.906-.018 4.367-.055 19.948-.504 37.264-4.304 48.552-10.539 11.601 6.419 29.725 10.256 50.246 10.574.931.014 1.858.021 2.782.021 18.154 0 34.826-2.78 46.898-7.764 1.953 1.259 4.312 2.447 7.173 3.5 7.467 2.749 17.36 4.263 27.858 4.263 20.3 0 44.004-5.848 44.004-22.327 0-.894-.035-1.779-.088-2.66h25.768a7 7 0 0 0 7-7V326.302C487.941 321.11 503 302.663 503 280.762zm-394.241-98.813-18.49 91.812H25.72l30.685-91.812zm65.4 42.183-4.546 49.63H104.55l18.49-91.812h20.309c7.182 16.188 17.754 30.549 30.81 42.182zm194.491-42.183h20.308l18.491 91.812h-65.063l-4.546-49.63c13.057-11.631 23.628-25.992 30.81-42.182zm-43.933 52.392 3.611 39.42H263v-18.626c22.761-1.28 43.891-8.765 61.717-20.794zM249 273.762h-65.33l3.611-39.421c17.827 12.029 38.957 19.514 61.718 20.795v18.626zm-80.754 14c-3.22 14.844-16.452 26-32.247 26-15.794 0-29.025-11.156-32.245-26zm80 0c-3.22 14.844-16.452 26-32.246 26s-29.025-11.156-32.246-26zm79.999 0c-3.22 14.844-16.451 26-32.245 26s-29.025-11.156-32.246-26zm80.001 0c-3.22 14.844-16.452 26-32.247 26-15.794 0-29.025-11.156-32.246-26zm13.485-14L403.24 181.95h52.355l30.685 91.812zm31.905-105.813h-79.772a122.53 122.53 0 0 0 5.103-28.779h74.669zM256 23c60.196 0 109.17 48.973 109.17 109.17S316.196 241.34 256 241.34s-109.17-48.973-109.17-109.17S195.804 23 256 23zM133.033 139.17a122.53 122.53 0 0 0 5.103 28.779H58.363V139.17zM23.756 287.762h64.49c-3.22 14.844-16.452 26-32.246 26s-29.024-11.156-32.244-26zM121.046 489c-18.611 0-30.003-5.392-30.003-8.327 0-16.543 13.46-30.001 30.005-30.001 16.543 0 30.002 13.458 30.002 30.001 0 2.935-11.392 8.327-30.004 8.327zm.002-62.185c-5.57 0-10.103-4.532-10.103-10.103 0-5.569 4.532-10.1 10.103-10.1s10.103 4.531 10.103 10.1c-.001 5.571-4.533 10.103-10.103 10.103zm43.739 56.765c.171-.93.263-1.898.263-2.908 0-11.761-4.647-22.45-12.19-30.352 8.224-20.394 27.897-33.818 50.221-33.818 17.965 0 34.816 9.027 44.845 23.787a67.726 67.726 0 0 0-7.168 30.376c0 3.321.813 7.507 3.698 11.774-20.181 8.268-57.263 8.92-79.669 1.141zm96.687-4.171c-4.457-2.748-6.717-5.689-6.717-8.744 0-29.865 24.299-54.163 54.167-54.163 22.321 0 41.994 13.424 50.216 33.817-7.543 7.902-12.191 18.591-12.191 30.352 0 .845.073 1.824.284 2.891-24.638 8.483-67.88 6.869-85.759-4.153zM390.952 489c-18.611 0-30.003-5.392-30.003-8.327 0-16.543 13.46-30.001 30.005-30.001 16.543 0 30.002 13.458 30.002 30.001 0 2.935-11.392 8.327-30.004 8.327zm.002-62.185c-5.57 0-10.103-4.532-10.103-10.103 0-5.569 4.532-10.1 10.103-10.1s10.103 4.531 10.103 10.1c0 5.571-4.533 10.103-10.103 10.103zm40.717 37.197c-5.207-12.678-16.163-22.409-29.611-25.919 7.715-4.024 12.997-12.095 12.997-21.381 0-13.289-10.812-24.1-24.103-24.1s-24.103 10.811-24.103 24.1c0 9.286 5.282 17.357 12.997 21.381a43.675 43.675 0 0 0-9.219 3.572c-11.099-23.746-34.879-39.162-61.706-39.162-21.331 0-40.397 9.854-52.906 25.242-12.835-15.775-32.3-25.242-52.938-25.242-26.828 0-50.609 15.416-61.709 39.162a43.688 43.688 0 0 0-9.217-3.571c7.715-4.024 12.997-12.095 12.997-21.381 0-13.289-10.812-24.1-24.103-24.1s-24.103 10.811-24.103 24.1c0 9.286 5.282 17.357 12.997 21.381-13.45 3.51-24.406 13.241-29.613 25.919H58.363V327.684c15.894-.792 29.737-9.497 37.637-22.266 8.289 13.399 23.119 22.344 39.999 22.344 16.881 0 31.712-8.945 40.001-22.345 8.289 13.4 23.119 22.345 40 22.345s31.711-8.945 40-22.345c8.289 13.4 23.119 22.345 40 22.345s31.71-8.945 39.999-22.344c8.289 13.399 23.119 22.344 40 22.344s31.712-8.945 40.001-22.345c7.899 12.77 21.743 21.474 37.636 22.267v136.329h-21.965zm24.328-150.25c-15.794 0-29.025-11.156-32.245-26h64.49c-3.219 14.844-16.45 26-32.245 26zM203.08 329.677c-19.447 0-35.27 15.82-35.27 35.265 0 19.448 15.822 35.27 35.27 35.27s35.27-15.822 35.27-35.27c0-19.446-15.823-35.265-35.27-35.265zm0 56.534c-11.729 0-21.27-9.542-21.27-21.27 0-11.726 9.541-21.265 21.27-21.265s21.27 9.54 21.27 21.265c0 11.729-9.541 21.27-21.27 21.27zm105.844-56.534c-19.447 0-35.27 15.82-35.27 35.265 0 19.448 15.822 35.27 35.27 35.27s35.27-15.822 35.27-35.27c-.001-19.446-15.823-35.265-35.27-35.265zm0 56.534c-11.729 0-21.27-9.542-21.27-21.27 0-11.726 9.541-21.265 21.27-21.265s21.27 9.54 21.27 21.265c-.001 11.729-9.542 21.27-21.27 21.27zm-105.07-194.124v11.777c0 9.186 7.473 16.659 16.658 16.659 7.346 0 13.585-4.785 15.794-11.398a79.41 79.41 0 0 0 39.387.001c2.209 6.613 8.448 11.398 15.793 11.398 9.186 0 16.659-7.473 16.659-16.659v-11.776c17.383-15.117 27.29-36.76 27.29-59.917 0-16.525-5.027-32.369-14.538-45.818l-.355.252c.234-1.899.368-3.834.368-5.801 0-20.394-13.199-36.985-29.424-36.985-7.912 0-15.099 3.953-20.392 10.361a80.77 80.77 0 0 0-21.16-1.208V50.82a7 7 0 1 0-14 0v29.579h-8.423V50.817a7 7 0 1 0-14 0v29.579h-8.422V50.817a7 7 0 1 0-14 0v35.567c-9.51 13.426-14.526 29.166-14.526 45.786 0 23.156 9.908 44.799 27.291 59.917zm110.959-88.634c4.35 8.883 6.622 18.644 6.622 28.718 0 14.503-4.735 28.274-13.29 39.523v-60.327c2.573-2.203 4.81-4.883 6.668-7.914zm-23.327-45.636c8.36 0 15.424 10.526 15.424 22.985 0 9.157-3.742 17.466-9.535 21.17a6.998 6.998 0 0 0-3.229 5.897v95.994c0 1.441-1.218 2.659-2.659 2.659s-2.658-1.218-2.658-2.659V107.87a7.003 7.003 0 0 0-3.229-5.898c-5.793-3.703-9.536-12.013-9.536-21.17-.002-12.459 7.062-22.985 15.422-22.985zm-27.372 9.445a45.21 45.21 0 0 0-2.051 13.54c0 12.425 4.81 23.756 12.766 30.565v83.475a65.333 65.333 0 0 1-18.828 2.764 65.335 65.335 0 0 1-18.829-2.764v-85.509c7.801-4.412 12.764-12.689 12.764-21.938V67.036a66.744 66.744 0 0 1 14.178.226zm-30.665 27.134a11.247 11.247 0 0 1-5.385 3.713 7 7 0 0 0-4.894 6.675v99.08c0 1.441-1.218 2.659-2.659 2.659s-2.658-1.218-2.658-2.659v-99.08a6.999 6.999 0 0 0-4.894-6.675 11.248 11.248 0 0 1-5.386-3.713zm-36.394 9.299a25.123 25.123 0 0 0 6.799 5.639v62.359c-8.555-11.25-13.29-25.021-13.29-39.523-.001-10.038 2.222-19.684 6.491-28.475z" fill="#f5b651" opacity="1" data-original="#000000" class=""></path></g></svg>